<svg width="22" height="25" viewBox="0 0 22 25" fill="none" xmlns="http://www.w3.org/2000/svg">
<path d="M5.5 11.4584C5.74312 11.4584 5.97628 11.5681 6.14818 11.7635C6.32009 11.9588 6.41667 12.2238 6.41667 12.5V19.7917C6.41667 20.068 6.32009 20.3329 6.14818 20.5283C5.97628 20.7236 5.74312 20.8334 5.5 20.8334C5.25689 20.8334 5.02373 20.7236 4.85182 20.5283C4.67991 20.3329 4.58334 20.068 4.58334 19.7917V12.5C4.58334 12.2238 4.67991 11.9588 4.85182 11.7635C5.02373 11.5681 5.25689 11.4584 5.5 11.4584ZM10.0833 5.20835V19.7917C10.0833 20.068 10.1799 20.3329 10.3518 20.5283C10.5237 20.7236 10.7569 20.8334 11 20.8334C11.2431 20.8334 11.4763 20.7236 11.6482 20.5283C11.8201 20.3329 11.9167 20.068 11.9167 19.7917V5.20835C11.9167 4.93209 11.8201 4.66713 11.6482 4.47178C11.4763 4.27643 11.2431 4.16669 11 4.16669C10.7569 4.16669 10.5237 4.27643 10.3518 4.47178C10.1799 4.66713 10.0833 4.93209 10.0833 5.20835ZM15.5833 8.85419V19.7917C15.5833 20.068 15.6799 20.3329 15.8518 20.5283C16.0237 20.7236 16.2569 20.8334 16.5 20.8334C16.7431 20.8334 16.9763 20.7236 17.1482 20.5283C17.3201 20.3329 17.4167 20.068 17.4167 19.7917V8.85419C17.4167 8.57792 17.3201 8.31297 17.1482 8.11762C16.9763 7.92227 16.7431 7.81252 16.5 7.81252C16.2569 7.81252 16.0237 7.92227 15.8518 8.11762C15.6799 8.31297 15.5833 8.57792 15.5833 8.85419Z" fill="white"/>
</svg>
