<svg width="19" height="15" viewBox="0 0 19 15" fill="none" xmlns="http://www.w3.org/2000/svg">
<path d="M1.81527 13.5669C1.96373 13.684 2.16506 13.7499 2.37498 13.7499C2.5849 13.7499 2.78623 13.684 2.93469 13.5669L5.46802 11.5669C6.67389 12.1715 8.07151 12.4949 9.49998 12.5C12.9239 12.5 16.013 10.625 17.3676 7.71625C17.4332 7.57675 17.4332 7.42325 17.3676 7.28375C16.8345 6.10989 15.9559 5.05277 14.8041 4.19937L17.1886 2.31688C17.2643 2.25922 17.3246 2.19026 17.3661 2.114C17.4076 2.03775 17.4294 1.95574 17.4303 1.87275C17.4312 1.78976 17.4112 1.70746 17.3714 1.63065C17.3316 1.55384 17.2728 1.48406 17.1985 1.42538C17.1241 1.3667 17.0357 1.32029 16.9384 1.28886C16.8412 1.25744 16.7369 1.24162 16.6318 1.24234C16.5267 1.24306 16.4228 1.26031 16.3262 1.29306C16.2296 1.32582 16.1423 1.37343 16.0692 1.43313L13.5359 3.43313C12.3289 2.82798 10.9298 2.50451 9.49998 2.5C6.07602 2.5 2.98694 4.375 1.6324 7.28375C1.56671 7.42325 1.56671 7.57675 1.6324 7.71625C2.16663 8.89042 3.04658 9.94757 4.19977 10.8006L1.81527 12.6831C1.66686 12.8003 1.58348 12.9593 1.58348 13.125C1.58348 13.2907 1.66686 13.4497 1.81527 13.5669ZM13.6689 5.0925C14.5932 5.75882 15.314 6.58197 15.7771 7.5C14.607 9.78562 12.1703 11.25 9.49998 11.25C8.49309 11.2464 7.5038 11.0413 6.62465 10.6537L7.9016 9.64562C8.38417 9.87537 8.93646 9.99782 9.49998 10C10.3398 10 11.1453 9.73661 11.7392 9.26777C12.333 8.79893 12.6666 8.16304 12.6666 7.5C12.6639 7.05511 12.5088 6.6191 12.2178 6.23812L13.6689 5.0925ZM7.97602 7.81937C7.93847 7.71545 7.91851 7.60806 7.91665 7.5C7.91665 7.16848 8.08346 6.85054 8.38039 6.61612C8.67733 6.3817 9.08005 6.25 9.49998 6.25C9.63685 6.25147 9.77288 6.26723 9.90452 6.29687L7.97602 7.81937ZM11.0239 7.18062C11.0615 7.28455 11.0815 7.39194 11.0833 7.5C11.0833 7.83152 10.9165 8.14946 10.6196 8.38388C10.3226 8.6183 9.9199 8.75 9.49998 8.75C9.3631 8.74853 9.22708 8.73277 9.09544 8.70312L11.0239 7.18062ZM3.22285 7.5C4.39294 5.21437 6.82969 3.75 9.49998 3.75C10.5069 3.75359 11.4962 3.95873 12.3753 4.34625L11.0984 5.35437C10.6158 5.12462 10.0635 5.00218 9.49998 5C8.66013 5 7.85467 5.26339 7.26081 5.73223C6.66694 6.20107 6.33331 6.83696 6.33331 7.5C6.33607 7.94488 6.49117 8.3809 6.78219 8.76187L5.33106 9.9075C4.40677 9.24118 3.68595 8.41803 3.22285 7.5Z" fill="white" fill-opacity="0.27"/>
</svg>
