<svg width="17" height="15" viewBox="0 0 17 15" fill="none" xmlns="http://www.w3.org/2000/svg">
<path d="M15.5833 3.75001H8.93775L7.72084 1.59563C7.66173 1.49126 7.57069 1.40357 7.45803 1.34249C7.34536 1.28141 7.21557 1.24937 7.08334 1.25001H1.41667C1.22881 1.25001 1.04864 1.31586 0.915802 1.43307C0.782964 1.55028 0.708336 1.70925 0.708336 1.87501V13.125C0.708336 13.2908 0.782964 13.4497 0.915802 13.567C1.04864 13.6842 1.22881 13.75 1.41667 13.75H15.5833C15.7712 13.75 15.9514 13.6842 16.0842 13.567C16.217 13.4497 16.2917 13.2908 16.2917 13.125V4.37501C16.2917 4.20925 16.217 4.05028 16.0842 3.93307C15.9514 3.81586 15.7712 3.75001 15.5833 3.75001ZM2.125 2.50001H6.64559L7.35392 3.75001H2.125V2.50001ZM14.875 12.5H2.125V5.00001H14.875V12.5Z" fill="#00C2CB"/>
</svg>
