<svg width="19" height="17" viewBox="0 0 19 17" fill="none" xmlns="http://www.w3.org/2000/svg">
<path d="M17.0644 5.78563L9.93938 1.53563C9.80927 1.458 9.65639 1.41659 9.50001 1.41663C9.3439 1.41673 9.19131 1.45814 9.06142 1.53563L1.93642 5.78563C1.79511 5.86994 1.68784 5.99268 1.63047 6.13572C1.57311 6.27876 1.56868 6.43452 1.61784 6.57999C1.66701 6.72546 1.76716 6.85292 1.9035 6.94355C2.03985 7.03418 2.20515 7.08317 2.37501 7.08329H3.16667V14.875C3.16667 15.0628 3.25008 15.243 3.39855 15.3758C3.54701 15.5087 3.74838 15.5833 3.95834 15.5833H15.0417C15.2516 15.5833 15.453 15.5087 15.6015 15.3758C15.7499 15.243 15.8333 15.0628 15.8333 14.875V7.08329H16.625C16.795 7.08348 16.9605 7.0347 17.0971 6.94418C17.2337 6.85367 17.3342 6.72621 17.3835 6.58067C17.4329 6.43513 17.4286 6.27924 17.3713 6.13605C17.3139 5.99287 17.2066 5.87 17.0652 5.78563H17.0644ZM14.25 14.1666H4.75001V5.80829L9.50001 2.97496L14.25 5.80829V14.1666Z" fill="white"/>
</svg>
