<svg width="17" height="16" viewBox="0 0 17 16" fill="none" xmlns="http://www.w3.org/2000/svg">
<path d="M1.0625 5L8.5 8L15.9375 5M4.4625 14H12.5375C13.7276 14 14.3227 14 14.7772 13.782C15.1771 13.5903 15.5022 13.2843 15.7059 12.908C15.9375 12.4802 15.9375 11.9201 15.9375 10.8V5.2C15.9375 4.0799 15.9375 3.51984 15.7059 3.09202C15.5022 2.71569 15.1771 2.40973 14.7772 2.21799C14.3227 2 13.7276 2 12.5375 2H4.4625C3.27239 2 2.67733 2 2.22277 2.21799C1.82293 2.40973 1.49784 2.71569 1.29411 3.09202C1.0625 3.51984 1.0625 4.07989 1.0625 5.2V10.8C1.0625 11.9201 1.0625 12.4802 1.29411 12.908C1.49784 13.2843 1.82293 13.5903 2.22277 13.782C2.67733 14 3.27239 14 4.4625 14Z" stroke="white" stroke-opacity="0.27" stroke-width="2" stroke-linejoin="round"/>
</svg>
