<svg width="20" height="20" viewBox="0 0 20 20" fill="none" xmlns="http://www.w3.org/2000/svg">
<path d="M12.5 10C12.5 11.3807 11.3807 12.5 10 12.5C8.61929 12.5 7.5 11.3807 7.5 10C7.5 8.61929 8.61929 7.5 10 7.5C11.3807 7.5 12.5 8.61929 12.5 10Z" stroke="#FFF7F7" stroke-width="2"/>
<path d="M7.86943 2.91065C8.51249 0.696452 11.4875 0.696452 12.1306 2.91065C12.4729 4.08922 13.6219 4.78821 14.7618 4.51125C16.9033 3.99093 18.3908 6.70552 16.8924 8.39939C16.0948 9.30101 16.0948 10.699 16.8924 11.6006C18.3908 13.2945 16.9033 16.0091 14.7618 15.4887C13.6219 15.2118 12.4729 15.9108 12.1306 17.0894C11.4875 19.3035 8.51249 19.3035 7.86943 17.0894C7.52713 15.9108 6.37806 15.2118 5.23818 15.4887C3.09669 16.0091 1.60918 13.2945 3.1076 11.6006C3.90519 10.699 3.90519 9.30101 3.1076 8.39939C1.60918 6.70552 3.09669 3.99093 5.23818 4.51125C6.37806 4.78821 7.52713 4.08922 7.86943 2.91065Z" stroke="#FFF7F7" stroke-width="2"/>
</svg>
